<svg xmlns="http://www.w3.org/2000/svg" viewBox="0 0 64 64" fill="none">
  <!-- Dragón Eterno - Pixel Art Style Boss -->
  <!-- Cuerpo masivo -->
  <rect x="16" y="28" width="32" height="20" fill="#1a3a3a"/>
  <rect x="20" y="32" width="24" height="12" fill="#2a4a4a"/>
  <!-- Pecho escamas doradas -->
  <rect x="26" y="34" width="12" height="8" fill="#8a7a4a"/>
  <rect x="28" y="36" width="8" height="4" fill="#aa9a5a"/>
  <!-- Cabeza -->
  <rect x="8" y="20" width="20" height="16" fill="#2a5050"/>
  <rect x="4" y="24" width="8" height="10" fill="#2a5050"/>
  <!-- Cuernos dorados -->
  <rect x="12" y="12" width="4" height="10" fill="#aa8a3a"/>
  <rect x="20" y="12" width="4" height="10" fill="#aa8a3a"/>
  <rect x="10" y="8" width="4" height="6" fill="#8a6a2a"/>
  <rect x="22" y="8" width="4" height="6" fill="#8a6a2a"/>
  <!-- Ojo -->
  <rect x="8" y="26" width="6" height="6" fill="#ffaa00"/>
  <rect x="10" y="28" width="2" height="2" fill="#ff0000"/>
  <!-- Fauces -->
  <rect x="0" y="30" width="8" height="4" fill="#1a2a2a"/>
  <rect x="2" y="30" width="2" height="2" fill="#ffffff"/>
  <rect x="4" y="30" width="2" height="2" fill="#ffffff"/>
  <!-- Fuego -->
  <rect x="-4" y="28" width="4" height="2" fill="#ff6600"/>
  <rect x="-6" y="30" width="6" height="2" fill="#ff4400"/>
  <rect x="-4" y="32" width="4" height="2" fill="#ff6600"/>
  <!-- Alas -->
  <rect x="36" y="12" width="20" height="4" fill="#3a5a5a"/>
  <rect x="40" y="16" width="20" height="4" fill="#2a4a4a"/>
  <rect x="44" y="20" width="16" height="4" fill="#1a3a3a"/>
  <rect x="48" y="24" width="12" height="4" fill="#0a2a2a"/>
  <!-- Estructura ala -->
  <rect x="36" y="12" width="4" height="20" fill="#4a6a6a"/>
  <!-- Cola -->
  <rect x="48" y="36" width="12" height="6" fill="#1a3a3a"/>
  <rect x="56" y="38" width="8" height="4" fill="#2a4a4a"/>
  <!-- Espinas cola -->
  <rect x="50" y="34" width="3" height="3" fill="#aa8a3a"/>
  <rect x="56" y="36" width="3" height="3" fill="#aa8a3a"/>
  <!-- Patas -->
  <rect x="20" y="48" width="8" height="8" fill="#1a3a3a"/>
  <rect x="36" y="48" width="8" height="8" fill="#1a3a3a"/>
  <!-- Garras -->
  <rect x="18" y="54" width="3" height="4" fill="#2a2a2a"/>
  <rect x="22" y="54" width="3" height="4" fill="#2a2a2a"/>
  <rect x="26" y="54" width="3" height="4" fill="#2a2a2a"/>
  <rect x="34" y="54" width="3" height="4" fill="#2a2a2a"/>
  <rect x="38" y="54" width="3" height="4" fill="#2a2a2a"/>
  <rect x="42" y="54" width="3" height="4" fill="#2a2a2a"/>
</svg>
