<svg xmlns="http://www.w3.org/2000/svg" viewBox="0 0 64 64" fill="none">
  <!-- Rata de Alcantarilla - Pixel Art Style -->
  <rect x="20" y="32" width="24" height="16" fill="#4a4a4a"/>
  <rect x="16" y="36" width="4" height="8" fill="#4a4a4a"/>
  <rect x="44" y="36" width="4" height="8" fill="#4a4a4a"/>
  <!-- Cabeza -->
  <rect x="12" y="28" width="12" height="12" fill="#5a5a5a"/>
  <rect x="8" y="32" width="4" height="8" fill="#5a5a5a"/>
  <!-- Ojos rojos -->
  <rect x="14" y="30" width="3" height="3" fill="#ff3333"/>
  <rect x="14" y="30" width="1" height="1" fill="#ffffff"/>
  <!-- Orejas -->
  <rect x="16" y="24" width="4" height="4" fill="#6a6a6a"/>
  <rect x="20" y="24" width="4" height="4" fill="#6a6a6a"/>
  <!-- Cola -->
  <rect x="44" y="40" width="12" height="3" fill="#3a3a3a"/>
  <rect x="56" y="42" width="4" height="2" fill="#3a3a3a"/>
  <!-- Patas -->
  <rect x="22" y="48" width="4" height="4" fill="#3a3a3a"/>
  <rect x="34" y="48" width="4" height="4" fill="#3a3a3a"/>
  <!-- Garras -->
  <rect x="22" y="52" width="1" height="2" fill="#222"/>
  <rect x="24" y="52" width="1" height="2" fill="#222"/>
  <rect x="34" y="52" width="1" height="2" fill="#222"/>
  <rect x="36" y="52" width="1" height="2" fill="#222"/>
</svg>
